<svg width="12" height="12" viewBox="0 0 22 18" fill="none" xmlns="http://www.w3.org/2000/svg">
<path d="M14.3333 1V3.28571M14.3333 7.85714V10.1429M14.3333 14.7143V17M3.22222 1C1.99492 1 1 2.02335 1 3.28571V5.71429C1 6.26657 1.47044 6.69483 1.96508 6.9405C2.709 7.30997 3.22222 8.09332 3.22222 9C3.22222 9.90668 2.709 10.69 1.96508 11.0595C1.47044 11.3052 1 11.7334 1 12.2857V14.7143C1 15.9767 1.99492 17 3.22222 17H18.7778C20.0051 17 21 15.9767 21 14.7143V12.2857C21 11.7334 20.5296 11.3052 20.0349 11.0595C19.291 10.69 18.7778 9.90668 18.7778 9C18.7778 8.09332 19.291 7.30996 20.0349 6.94049C20.5296 6.69483 21 6.26657 21 5.71429V3.28571C21 2.02335 20.0051 1 18.7778 1H3.22222Z" stroke="#808080" stroke-width="1.5" stroke-linecap="round" stroke-linejoin="round"/>
</svg>
