<svg width="143" height="25" viewBox="0 0 143 25" fill="none" xmlns="http://www.w3.org/2000/svg">
<path d="M35.8746 3.95283C35.272 2.03787 33.1742 0.480967 31.1996 0.480967C28.627 0.480967 27.1295 2.62709 26.4676 3.90298C25.9905 4.78001 25.5796 5.51427 25.1847 6.21907C24.6163 7.23434 24.0776 8.19069 23.4361 9.41672L22.8198 10.5929C21.3315 13.437 19.8408 16.2834 18.3571 19.1298C18.074 19.6737 17.5285 19.864 16.9692 19.617C16.6085 19.4584 16.4556 19.1728 16.4579 18.6584V18.2482C16.4601 17.2194 16.4624 16.1905 16.4579 15.1616L16.451 13.3282C16.4464 11.4767 16.4396 9.56176 16.4031 7.67852C16.3802 6.49328 16.0333 5.3443 15.3736 4.26104C13.851 1.76365 11.5934 0.401649 8.66696 0.213552C6.95036 0.102506 5.36615 0.499097 3.95772 1.38746C1.3714 3.02141 0.0474297 5.36243 0.0223199 8.34252C-0.0050727 11.7396 -0.00050727 15.1933 0.00177544 18.5338C0.00177544 20.2946 0.00634087 22.0578 0.00177544 23.8186C0.00177544 23.9251 0.0154717 24.0792 0.125042 24.188C0.234612 24.2945 0.378423 24.3081 0.513103 24.3081C1.40108 24.3013 2.31416 24.3036 3.21584 24.3036H4.20425C4.42567 24.3036 4.72014 24.2537 4.72014 23.8209V14.3526C4.72014 12.3832 4.72014 10.4116 4.72014 8.44224C4.72014 7.77823 4.87765 7.17542 5.20408 6.60206C5.75878 5.62758 6.70154 4.98624 7.78811 4.8412C8.8724 4.69616 9.94984 5.06782 10.7442 5.85874C11.3469 6.45702 11.7349 7.47229 11.7349 8.44224C11.7418 11.939 11.7395 16.1995 11.7349 19.6895C11.7349 19.7666 11.7052 21.566 13.0406 22.9053C13.9583 23.8277 15.2868 24.2945 17.0057 24.2945C18.4689 24.29 20.884 24.2945 22.2719 21.7042L30.4007 6.61339C30.5787 6.28252 30.7636 6.16921 31.1311 6.16921C31.4553 6.16921 31.6493 6.33918 31.7794 6.7403C32.6354 9.40992 37.1073 21.9127 37.7487 23.9138C37.8355 24.1858 38.0021 24.3059 38.3011 24.3059H42.7844C42.7844 24.3059 36.4932 5.93805 35.8678 3.95283H35.8746Z" fill="white"/>
<path d="M59.623 1.06727L52.6196 23.6639C52.5009 24.0446 52.1494 24.3029 51.7476 24.3029H48.0565C47.6639 24.3029 47.3169 24.0537 47.1936 23.6865L39.5465 1.07407C39.4918 0.913169 39.6127 0.75 39.7817 0.75H44.1987C44.3083 0.75 44.4042 0.820253 44.4361 0.9245L49.659 18.0685C49.732 18.3065 50.0721 18.302 50.136 18.0617L54.8179 0.931299C54.8476 0.824786 54.9457 0.75 55.0576 0.75H59.3856C59.5522 0.75 59.6732 0.910902 59.623 1.06954V1.06727Z" fill="white"/>
<path d="M66.3742 0.748047H62.2996C62.1622 0.748047 62.0508 0.858641 62.0508 0.995066V24.0562C62.0508 24.1927 62.1622 24.3033 62.2996 24.3033H66.3742C66.5117 24.3033 66.6231 24.1927 66.6231 24.0562V0.995066C66.6231 0.858641 66.5117 0.748047 66.3742 0.748047Z" fill="white"/>
<path d="M91.537 5.82787C90.6719 4.20298 89.4095 2.8727 87.7888 1.87556C86.1635 0.87615 84.2164 0.373047 82.0021 0.373047C79.7879 0.373047 77.754 0.878417 76.0442 1.87329C74.3276 2.87043 72.974 4.28456 72.0198 6.07489C71.0656 7.86068 70.584 9.96601 70.584 12.3388C70.584 14.7115 71.0748 16.8576 72.0449 18.6275C73.0174 20.4043 74.3687 21.8093 76.0671 22.8042C77.7631 23.8014 79.7308 24.3067 81.9154 24.3067C84.625 24.3067 86.8871 23.5974 88.6357 22.1969C90.3797 20.8031 91.5758 19.0241 92.1944 16.9075C92.2561 16.7012 92.0986 16.495 91.884 16.495H88.2682C88.0604 16.495 87.871 16.6129 87.7842 16.801C87.4943 17.4242 86.7433 18.8315 85.6567 19.4638C84.6181 20.0689 83.4037 20.4813 81.9154 20.4813C80.7717 20.4813 79.676 20.2071 78.6602 19.6677C77.649 19.1306 76.7952 18.3193 76.1218 17.2519C75.5306 16.3183 75.1631 15.1511 75.0216 13.7778C75.0079 13.6373 75.1197 13.5149 75.2635 13.5149H92.6236C92.7172 13.5149 92.7925 13.4401 92.7925 13.3472V13.1931C92.7925 12.7671 92.7994 12.4045 92.813 12.0872C92.829 11.7495 92.8359 11.4119 92.8359 11.0878C92.8359 9.22268 92.3999 7.45502 91.5347 5.8324L91.537 5.82787ZM81.9131 4.19618C83.7164 4.19618 85.2504 4.74234 86.4785 5.8188C87.5674 6.77289 88.2111 8.0737 88.3983 9.69179C88.4143 9.8323 88.3001 9.95694 88.1586 9.95694H75.3457C75.1974 9.95694 75.0809 9.8255 75.106 9.68046C75.3937 7.99892 76.1355 6.68224 77.3111 5.76441C78.6442 4.72421 80.1919 4.19845 81.9154 4.19845L81.9131 4.19618Z" fill="white"/>
<path d="M113.9 13.3845C113.578 13.3845 113.279 13.3483 113.007 13.2735L112.473 13.7902C112.565 13.8468 112.676 13.8967 112.809 13.9375C112.941 13.9783 113.126 14.0145 113.366 14.0485C113.606 14.0825 113.932 14.1143 114.345 14.146C115.165 14.2208 115.756 14.4157 116.119 14.7307C116.482 15.0457 116.664 15.4672 116.664 15.993C116.664 16.3533 116.566 16.6978 116.372 17.0218C116.178 17.3459 115.877 17.6088 115.466 17.8105C115.057 18.0122 114.535 18.1119 113.898 18.1119C113.037 18.1119 112.341 17.9487 111.807 17.6247C111.273 17.3006 111.008 16.8088 111.008 16.1539C111.008 15.9001 111.076 15.6462 111.213 15.3969C111.35 15.1477 111.567 14.9097 111.864 14.6899C111.69 14.6151 111.54 14.5358 111.412 14.4497C111.284 14.3635 111.17 14.2752 111.072 14.1845V13.8899L112.138 12.8066C111.658 12.3965 111.419 11.8594 111.419 11.1931C111.419 10.792 111.517 10.4226 111.711 10.0917C111.905 9.75856 112.188 9.49341 112.56 9.29852C112.932 9.10135 113.38 9.00391 113.9 9.00391C114.247 9.00391 114.569 9.05376 114.868 9.15121H117.162V10.0124L116.071 10.0736C116.269 10.4112 116.368 10.7829 116.368 11.1931C116.368 11.6033 116.269 11.9727 116.075 12.3013C115.881 12.6299 115.601 12.8928 115.233 13.0899C114.866 13.2871 114.42 13.3845 113.9 13.3845ZM112.25 16.0315C112.25 16.385 112.407 16.6502 112.72 16.8247C113.035 17.0014 113.427 17.0898 113.898 17.0898C114.368 17.0898 114.72 16.9924 115.003 16.7997C115.283 16.6071 115.425 16.351 115.425 16.0292C115.425 15.7913 115.329 15.5873 115.14 15.4196C114.95 15.2519 114.589 15.1477 114.06 15.1046C113.663 15.0797 113.311 15.0434 113.005 14.9936C112.715 15.1499 112.517 15.3176 112.409 15.4989C112.302 15.6802 112.247 15.857 112.247 16.0292L112.25 16.0315ZM113.9 12.3625C114.281 12.3625 114.589 12.2627 114.825 12.0611C115.06 11.8594 115.178 11.5738 115.178 11.2044C115.178 10.835 115.06 10.5404 114.825 10.3432C114.589 10.1461 114.281 10.0486 113.9 10.0486C113.519 10.0486 113.199 10.1461 112.964 10.3432C112.729 10.5404 112.61 10.8282 112.61 11.2044C112.61 11.5806 112.729 11.8594 112.964 12.0611C113.199 12.2627 113.512 12.3625 113.9 12.3625Z" fill="white"/>
<path d="M117.945 15.2561V6.39062H119.26V15.2561H117.945Z" fill="white"/>
<path d="M123.326 15.4044C122.74 15.4044 122.213 15.2707 121.745 15.0032C121.277 14.7358 120.907 14.3619 120.635 13.8837C120.364 13.4056 120.227 12.8435 120.227 12.2022C120.227 11.5608 120.366 11.0011 120.642 10.5206C120.918 10.0402 121.293 9.66627 121.765 9.40112C122.235 9.13371 122.76 9 123.34 9C123.92 9 124.454 9.13371 124.922 9.40112C125.39 9.66854 125.762 10.0425 126.038 10.5206C126.315 11.0011 126.454 11.5608 126.454 12.2022C126.454 12.8435 126.315 13.4033 126.038 13.8837C125.762 14.3642 125.388 14.7381 124.915 15.0032C124.445 15.2707 123.915 15.4044 123.326 15.4044ZM123.326 14.2849C123.641 14.2849 123.931 14.2078 124.201 14.0514C124.47 13.8951 124.687 13.6639 124.851 13.3557C125.016 13.0475 125.1 12.6645 125.1 12.2045C125.1 11.7444 125.02 11.3614 124.858 11.0532C124.696 10.745 124.482 10.5138 124.212 10.3575C123.943 10.2011 123.653 10.1241 123.338 10.1241C123.023 10.1241 122.733 10.2011 122.464 10.3575C122.194 10.5138 121.977 10.745 121.813 11.0532C121.646 11.3614 121.564 11.7444 121.564 12.2045C121.564 12.6645 121.646 13.0475 121.813 13.3557C121.977 13.6639 122.194 13.8951 122.459 14.0514C122.724 14.2078 123.014 14.2849 123.326 14.2849Z" fill="white"/>
<path d="M130.937 15.4034C130.458 15.4034 130.033 15.3082 129.666 15.1202C129.298 14.9321 129.006 14.6646 128.791 14.3202V15.2561H127.477V6.39062H128.791V10.0982C128.99 9.81037 129.262 9.55655 129.611 9.33446C129.958 9.11237 130.405 9.00132 130.951 9.00132C131.547 9.00132 132.072 9.14183 132.526 9.42058C132.98 9.69932 133.339 10.0823 133.599 10.565C133.859 11.05 133.989 11.5984 133.989 12.2148C133.989 12.8313 133.859 13.3774 133.599 13.8579C133.339 14.3383 132.98 14.7168 132.526 14.991C132.072 15.2652 131.542 15.4034 130.939 15.4034H130.937ZM130.713 14.2703C131.275 14.2703 131.738 14.08 132.104 13.697C132.467 13.3162 132.649 12.8177 132.649 12.2012C132.649 11.8001 132.567 11.4421 132.4 11.1293C132.236 10.8166 132.008 10.5741 131.718 10.3973C131.428 10.2206 131.092 10.1322 130.713 10.1322C130.152 10.1322 129.691 10.3248 129.33 10.7101C128.969 11.0953 128.791 11.5916 128.791 12.199C128.791 12.8063 128.972 13.314 129.33 13.6947C129.691 14.0754 130.15 14.268 130.713 14.268V14.2703Z" fill="white"/>
<path d="M137.132 15.4044C136.612 15.4044 136.18 15.3183 135.842 15.146C135.502 14.9738 135.251 14.7449 135.087 14.4616C134.922 14.1783 134.838 13.8679 134.838 13.5325C134.838 12.941 135.068 12.4741 135.532 12.1297C135.995 11.7852 136.657 11.613 137.516 11.613H139.127V11.5019C139.127 11.026 138.997 10.6679 138.737 10.43C138.477 10.192 138.139 10.0719 137.726 10.0719C137.363 10.0719 137.045 10.1603 136.776 10.3371C136.507 10.5138 136.344 10.7745 136.285 11.1189H134.97C135.011 10.6747 135.162 10.2963 135.422 9.97901C135.683 9.66401 136.013 9.42152 136.415 9.25155C136.817 9.08385 137.258 9 137.737 9C138.598 9 139.262 9.22436 139.734 9.67081C140.205 10.1173 140.442 10.7269 140.442 11.4997V15.2548H139.205L139.189 14.2078C139.015 14.5455 138.762 14.8287 138.433 15.0576C138.102 15.2865 137.668 15.4021 137.13 15.4021L137.132 15.4044ZM137.392 14.346C137.748 14.346 138.047 14.2622 138.292 14.0945C138.536 13.9268 138.725 13.7024 138.862 13.4237C138.999 13.1449 139.084 12.8367 139.116 12.4991H137.652C137.132 12.4991 136.762 12.5897 136.543 12.771C136.324 12.9523 136.214 13.1767 136.214 13.4486C136.214 13.7206 136.319 13.9472 136.532 14.1081C136.742 14.269 137.029 14.3483 137.395 14.3483L137.392 14.346Z" fill="white"/>
<path d="M141.684 15.2561V6.39062H142.998V15.2561H141.684Z" fill="white"/>
</svg>
